HIERARCHY
ROOT Root
{
	OFFSET 0.00000 0.00000 0.00000
	CHANNELS 6 Xposition Yposition Zposition Zrotation Xrotation Yrotation
	JOINT Hips
	{
		OFFSET 0 0 0	
		CHANNELS 3 Zrotation Xrotation Yrotation
		JOINT Spine
		{
			OFFSET 0 4 0	
			CHANNELS 3 Zrotation Xrotation Yrotation
			JOINT Spine1
			{
				OFFSET 0 19.4 0	
				CHANNELS 3 Zrotation Xrotation Yrotation
				JOINT Spine2
				{
					OFFSET 0 16.6 0	
					CHANNELS 3 Zrotation Xrotation Yrotation
					JOINT LeftCollar
					{
						OFFSET 0 10 0	
						CHANNELS 3 Zrotation Xrotation Yrotation
						JOINT LeftArm
						{
							OFFSET 15.6 -2 3	
							CHANNELS 3 Zrotation Xrotation Yrotation
							JOINT LeftForeArm
							{
								OFFSET 3.5 -27 -1	
								CHANNELS 3 Zrotation Xrotation Yrotation
								JOINT LeftHand
								{
									OFFSET 1 -27 1	
									CHANNELS 3 Zrotation Xrotation Yrotation
									End Site
									{
										OFFSET 0 -15 0
									}
								}
							}
						}
					}
					JOINT RightCollar
					{
						OFFSET 0 10 0	
						CHANNELS 3 Zrotation Xrotation Yrotation
						JOINT RightArm
						{
							OFFSET -15.6 -2 3	
							CHANNELS 3 Zrotation Xrotation Yrotation
							JOINT RightForeArm
							{
								OFFSET -3.5 -27 -1	
								CHANNELS 3 Zrotation Xrotation Yrotation
								JOINT RightHand
								{
									OFFSET -1 -27 1	
									CHANNELS 3 Zrotation Xrotation Yrotation
									End Site
									{
										OFFSET 0 -15 0
									}
								}
							}
						}
					}
					JOINT Neck
					{
						OFFSET 0 10 0	
						CHANNELS 3 Zrotation Xrotation Yrotation
						JOINT Head
						{
							OFFSET 0 12.7 3	
							CHANNELS 3 Zrotation Xrotation Yrotation
							End Site
							{
								OFFSET 0 12.7 3
							}
						}
					}
				}
			}
		}
	}
	JOINT LeftHip
	{
		OFFSET 0 0 0	
		CHANNELS 3 Zrotation Xrotation Yrotation
		JOINT LeftUpLeg
		{
			OFFSET 8.8 -6 0	
			CHANNELS 3 Zrotation Xrotation Yrotation
			JOINT LeftLeg
			{
				OFFSET 0 -39 2	
				CHANNELS 3 Zrotation Xrotation Yrotation
				JOINT LeftFoot
				{
					OFFSET 0 -43 -2	
					CHANNELS 3 Zrotation Xrotation Yrotation
					JOINT LeftFootFront
					{
						OFFSET 0 -7 8.5	
						CHANNELS 3 Zrotation Xrotation Yrotation
						End Site
						{
							OFFSET 0 -0.5 9
						}
					}
				}
				JOINT LeftHeel
				{
					OFFSET 0 -43 -2	
					CHANNELS 3 Zrotation Xrotation Yrotation
					End Site
					{
						OFFSET 0 -7.5 -5
					}
				}
			}
		}
	}
	JOINT RightHip
	{
		OFFSET 0 0 0	
		CHANNELS 3 Zrotation Xrotation Yrotation
		JOINT RightUpLeg
		{
			OFFSET -8.8 -6 0	
			CHANNELS 3 Zrotation Xrotation Yrotation
			JOINT RightLeg
			{
				OFFSET 0 -39 2	
				CHANNELS 3 Zrotation Xrotation Yrotation
				JOINT RightFoot
				{
					OFFSET 0 -43 -2	
					CHANNELS 3 Zrotation Xrotation Yrotation
					JOINT RightFootFront
					{
						OFFSET 0 -7 8.5	
						CHANNELS 3 Zrotation Xrotation Yrotation
						End Site
						{
							OFFSET 0 -0.5 9
						}
					}
				}
				JOINT RightHeel
				{
					OFFSET 0 -43 -2	
					CHANNELS 3 Zrotation Xrotation Yrotation
					End Site
					{
						OFFSET 0 -7.5 -5
					}
				}
			}
		}
	}
}
MOTION
Frames: 12
Frame Time: 0.05
0 95.5 0 -0 0 -0 -0 0 -0 -0 0 -0 -6.472 22.908 57.988 -0 0 -0 -0 0 -0 1.7952 10.699 25.336 -2.238 -58.721 7.0252 -0 0 -0 -0 0 -0 8.0712 -37.683 40.909 76.379 -29.158 -23.544 -0 0 -0 2.7122 -20.763 5.0772 2.7122 -20.763 5.0772 -0 0 -0 -0 0 -0 -0 0 -0 -0 0 -0 -0 0 -0 -0 0 -0 -0 0 -0 -0 0 -0 -0 0 -0 -0 0 -0 -0 0 -0 -0 0 -0 
0 95.5 0 -0 0 -0 -0 0 -0 -0 0 -0 -6.4049 22.43 57.838 -0 0 -0 -0 0 -0 1.5348 9.3466 23.434 2.2563 -57.754 8.4909 -0 0 -0 -0 0 -0 7.5233 -38.233 41.914 72.627 -29.37 -19.971 -0 0 -0 2.8067 -20.925 5.0616 2.8067 -20.925 5.0616 -0 0 -0 -0 0 -0 -0 0 -0 -0 0 -0 -0 0 -0 -0 0 -0 -0 0 -0 -0 0 -0 -0 0 -0 -0 0 -0 -0 0 -0 -0 0 -0 
0 95.5 0 -0 0 -0 -0 0 -0 -0 0 -0 -6.6618 22.049 58.143 -0 0 -0 -0 0 -0 1.2844 7.9097 21.114 6.6612 -56.831 9.7802 -0 0 -0 -0 0 -0 6.4442 -38.858 40.122 69.213 -27.867 -15.07 -0 0 -0 2.8325 -21.27 4.8697 2.8325 -21.27 4.8697 -0 0 -0 -0 0 -0 -0 0 -0 -0 0 -0 -0 0 -0 -0 0 -0 -0 0 -0 -0 0 -0 -0 0 -0 -0 0 -0 -0 0 -0 -0 0 -0 
0 95.5 0 -0 0 -0 -0 0 -0 -0 0 -0 -6.831 21.441 58.946 -0 0 -0 -0 0 -0 1.3729 7.318 18.794 9.6603 -56.361 10.109 -0 0 -0 -0 0 -0 4.3956 -38.875 36.501 67.674 -26.626 -10.853 -0 0 -0 2.8164 -21.511 4.3675 2.8164 -21.511 4.3675 -0 0 -0 -0 0 -0 -0 0 -0 -0 0 -0 -0 0 -0 -0 0 -0 -0 0 -0 -0 0 -0 -0 0 -0 -0 0 -0 -0 0 -0 -0 0 -0 
0 95.5 0 -0 0 -0 -0 0 -0 -0 0 -0 -6.8979 20.52 60.325 -0 0 -0 -0 0 -0 2.6375 6.6495 17.214 9.2542 -55.718 8.2657 -0 0 -0 -0 0 -0 1.6658 -38.409 33.026 67.022 -27.292 -9.1531 -0 0 -0 2.9595 -21.453 3.4325 2.9595 -21.453 3.4325 -0 0 -0 -0 0 -0 -0 0 -0 -0 0 -0 -0 0 -0 -0 0 -0 -0 0 -0 -0 0 -0 -0 0 -0 -0 0 -0 -0 0 -0 -0 0 -0 
0 95.5 0 -0 0 -0 -0 0 -0 -0 0 -0 -6.881 19.032 62.191 -0 0 -0 -0 0 -0 4.5075 5.9889 14.194 10.087 -55.386 8.6541 -0 0 -0 -0 0 -0 -0.5918 -37.505 31.034 65.986 -29.297 -8.8112 -0 0 -0 3.1458 -21.021 2.2402 3.1457 -21.021 2.2402 -0 0 -0 -0 0 -0 -0 0 -0 -0 0 -0 -0 0 -0 -0 0 -0 -0 0 -0 -0 0 -0 -0 0 -0 -0 0 -0 -0 0 -0 -0 0 -0 
0 95.5 0 -0 0 -0 -0 0 -0 -0 0 -0 -6.7139 17.437 64.193 -0 0 -0 -0 0 -0 6.1697 5.5115 10.948 11.007 -55.368 8.679 -0 0 -0 -0 0 -0 -1.8308 -36.653 29.228 64.83 -30.415 -9.4848 -0 0 -0 3.3763 -20.561 1.0674 3.3763 -20.561 1.0674 -0 0 -0 -0 0 -0 -0 0 -0 -0 0 -0 -0 0 -0 -0 0 -0 -0 0 -0 -0 0 -0 -0 0 -0 -0 0 -0 -0 0 -0 -0 0 -0 
0 95.5 0 -0 0 -0 -0 0 -0 -0 0 -0 -5.8826 16.061 65.498 -0 0 -0 -0 0 -0 7.0554 4.9498 9.6981 10.178 -54.959 6.0151 -0 0 -0 -0 0 -0 -2.8011 -35.251 25.778 65.542 -29.46 -9.7694 -0 0 -0 3.5862 -19.9 0.29991 3.5862 -19.9 0.29992 -0 0 -0 -0 0 -0 -0 0 -0 -0 0 -0 -0 0 -0 -0 0 -0 -0 0 -0 -0 0 -0 -0 0 -0 -0 0 -0 -0 0 -0 -0 0 -0 
0 95.5 0 -0 0 -0 -0 0 -0 -0 0 -0 -5.0759 15.152 66.788 -0 0 -0 -0 0 -0 7.3898 4.1499 9.6142 8.3944 -54.815 1.8196 -0 0 -0 -0 0 -0 -3.79 -33.574 22.827 66.546 -28.828 -11.348 -0 0 -0 3.4903 -19.439 -0.33195 3.4903 -19.439 -0.33197 -0 0 -0 -0 0 -0 -0 0 -0 -0 0 -0 -0 0 -0 -0 0 -0 -0 0 -0 -0 0 -0 -0 0 -0 -0 0 -0 -0 0 -0 -0 0 -0 
0 95.5 0 -0 0 -0 -0 0 -0 -0 0 -0 -4.7459 14.329 68.753 -0 0 -0 -0 0 -0 7.7373 3.1227 8.4884 8.1465 -54.47 -0.30524 -0 0 -0 -0 0 -0 -5.0707 -32.051 20.591 67.439 -30.062 -12.784 -0 0 -0 3.1692 -19.406 -1.1187 3.1692 -19.406 -1.1187 -0 0 -0 -0 0 -0 -0 0 -0 -0 0 -0 -0 0 -0 -0 0 -0 -0 0 -0 -0 0 -0 -0 0 -0 -0 0 -0 -0 0 -0 -0 0 -0 
0 95.5 0 -0 0 -0 -0 0 -0 -0 0 -0 -4.5538 13.517 70.689 -0 0 -0 -0 0 -0 8.1392 2.2292 6.3222 10.066 -53.749 1.2913 -0 0 -0 -0 0 -0 -6.1148 -30.497 17.85 68.331 -30.409 -12.986 -0 0 -0 3.0345 -19.602 -1.862 3.0345 -19.602 -1.862 -0 0 -0 -0 0 -0 -0 0 -0 -0 0 -0 -0 0 -0 -0 0 -0 -0 0 -0 -0 0 -0 -0 0 -0 -0 0 -0 -0 0 -0 -0 0 -0 
0 95.5 0 -0 0 -0 -0 0 -0 -0 0 -0 -5.0653 13.242 72.104 -0 0 -0 -0 0 -0 8.194 1.1621 5.4213 11.03 -53.279 1.6139 -0 0 -0 -0 0 -0 -7.2482 -29.635 15.216 69.611 -29.991 -12.896 -0 0 -0 3.0751 -20.377 -2.3427 3.0751 -20.377 -2.3427 -0 0 -0 -0 0 -0 -0 0 -0 -0 0 -0 -0 0 -0 -0 0 -0 -0 0 -0 -0 0 -0 -0 0 -0 -0 0 -0 -0 0 -0 -0 0 -0 
